<svg width="24" height="10" viewBox="0 0 24 10" fill="none" xmlns="http://www.w3.org/2000/svg">
<path d="M8.44522 3.40327C7.39587 3.63065 6.33099 3.70562 5.28572 3.6257C4.17565 3.55309 3.09924 3.30722 2.09634 2.8972C1.66776 4.91984 4.04542 9.91342 4.29217 9.93065C4.53774 9.94877 8.00785 5.45563 8.44413 3.40347C8.44424 3.40295 8.44489 3.40285 8.44522 3.40327V3.40327Z" fill="url(#paint0_linear_56_45)" fill-opacity="0.89"/>
<path d="M15.193 3.55481C16.2505 3.7478 17.3194 3.78735 18.3643 3.67215C19.4744 3.56211 20.546 3.27936 21.5394 2.83437C22.0245 4.84946 19.7803 9.93948 19.5336 9.96504C19.2881 9.99146 15.6863 5.59765 15.1938 3.55374L15.193 3.55481Z" fill="url(#paint1_linear_56_45)" fill-opacity="0.89"/>
<defs>
<linearGradient id="paint0_linear_56_45" x1="5.05025" y1="2.69594" x2="4.38163" y2="9.18076" gradientUnits="userSpaceOnUse">
<stop stop-color="#FF7A00"/>
<stop offset="1" stop-color="#FCC12B"/>
</linearGradient>
<linearGradient id="paint1_linear_56_45" x1="18.5746" y1="2.73137" x2="19.4628" y2="9.21022" gradientUnits="userSpaceOnUse">
<stop stop-color="#FF7A00"/>
<stop offset="1" stop-color="#FCC12B"/>
</linearGradient>
</defs>
</svg>
