<svg width="158" height="23" viewBox="0 0 158 23" fill="none" xmlns="http://www.w3.org/2000/svg">
<path d="M15.1898 11.276C16.514 12.4968 17.3449 14.2373 17.3449 16.1595C17.3449 19.8222 14.3849 22.7835 10.7237 22.7835H0V14.8607C0 11.9254 2.36286 9.56151 5.29695 9.56151H10.2823C11.7883 9.56151 13.0087 8.34061 13.0087 6.83398C13.0087 5.32734 11.7883 4.10645 10.2823 4.10645H3.89482C1.73969 4.10645 0 2.36602 0 0.235952H10.2823C13.9434 0.235952 16.9035 3.19727 16.9035 6.83398C16.9035 8.54842 16.2544 10.107 15.1898 11.276ZM3.89482 18.8871H10.7237C12.2297 18.8871 13.4501 17.6662 13.4501 16.1595C13.4501 14.6789 12.2297 13.458 10.7497 13.458H5.66047C4.67378 13.458 3.89482 14.2373 3.89482 15.2244V18.8871Z" fill="white" fill-opacity="0.89"/>
<path d="M35.2128 4.13242H22.2041C21.1395 4.13242 20.2307 3.74278 19.4777 2.98946C18.7247 2.23614 18.3352 1.32696 18.3352 0.261928H31.318C32.3826 0.261928 33.3173 0.625599 34.0703 1.37892C34.8233 2.13223 35.2128 3.06739 35.2128 4.13242ZM44.5837 22.7835H18.3352V14.1593C18.3352 12.7047 18.8546 11.4578 19.8932 10.4187C20.9058 9.37967 22.1522 8.86014 23.6322 8.86014H30.0976C31.1622 8.86014 32.0969 9.24979 32.8499 10.0031C33.6029 10.7564 33.9664 11.6916 33.9664 12.7566H23.9697C23.4764 12.7566 23.061 12.9384 22.7234 13.2761C22.3859 13.6138 22.2041 14.0295 22.2041 14.523V18.8871H31.318C40.629 18.8871 41.1889 19.2767 41.9419 20.03C42.6949 20.7833 42.3347 21.7185 44.5837 22.7835Z" fill="white" fill-opacity="0.89"/>
<path d="M49.0898 5.01562V0.261928C51.219 0.261928 52.9587 2.00235 52.9587 4.13242V5.01562C52.9587 9.016 50.2064 12.367 46.4673 13.2242V22.7835C44.3382 22.7835 42.5985 21.0431 42.5985 18.8871V13.2242C38.8595 12.367 36.1071 9.016 35.7323 5.01562L35.6857 4.11386C35.6361 3.15206 35.3051 2.22601 34.7339 1.45064V1.45064L33.4833 0.261928C35.6124 0.261928 39.976 2.00235 39.976 4.13242V5.01562C39.976 7.53534 42.0272 9.58748 44.5459 9.58748C47.0386 9.58748 49.0898 7.53534 49.0898 5.01562Z" fill="white" fill-opacity="0.89"/>
<path d="M80.9937 2.52031C81.3327 1.19165 82.5294 0.261928 83.9006 0.261928H88.0306C92.8342 0.261928 96.729 4.1584 96.729 8.96405V14.0814C96.729 16.4712 95.7683 18.6533 94.1844 20.2378C92.6005 21.7964 90.4454 22.7835 88.0306 22.7835H77.1112C76.4587 22.7835 75.9809 22.1686 76.1423 21.5363L80.9937 2.52031ZM92.8602 14.0814V8.96405C92.8602 7.63925 92.3149 6.41835 91.4321 5.56113C90.5752 4.67793 89.3548 4.13242 88.0306 4.13242H84.5645L81.6916 18.8871H88.0306C90.705 18.8871 92.8602 16.731 92.8602 14.0814Z" fill="white" fill-opacity="0.89"/>
<path d="M93.9904 0.235952H120.657C122.812 0.235952 124.552 1.97638 124.552 4.10645H104.377V22.7835C102.221 22.7835 100.482 21.0431 100.482 18.8871V4.10645H97.8592C95.73 4.10645 93.9904 2.36602 93.9904 0.235952ZM111.543 18.8871H120.657C122.812 18.8871 124.552 20.6275 124.552 22.7835H107.648V14.1593C107.648 11.224 110.037 8.86014 112.945 8.86014H119.436C121.566 8.86014 123.305 10.6006 123.305 12.7306H113.309C112.322 12.7306 111.543 13.5359 111.543 14.497V18.8871Z" fill="white" fill-opacity="0.89"/>
<path d="M132.361 0.261928H140.54V10.2109C138.411 10.2109 136.671 8.47049 136.671 6.34042V4.13242H132.361C131.037 4.13242 129.842 4.67793 128.959 5.56113C128.102 6.41835 127.557 7.63925 127.557 8.96405V14.0814C127.557 16.731 129.712 18.8871 132.361 18.8871H136.879C139.008 18.8871 140.748 20.6275 140.748 22.7835H132.361C129.972 22.7835 127.791 21.7964 126.233 20.2378C124.649 18.6533 123.662 16.4712 123.662 14.0814V8.96405C123.662 4.1584 127.557 0.261928 132.361 0.261928Z" fill="white" fill-opacity="0.89"/>
<path d="M154.105 9.58748V0.261928C156.26 0.261928 158 2.00235 158 4.13242V22.7835C155.845 22.7835 154.105 21.0431 154.105 18.8871V13.458H148.601C146.601 13.458 145.017 15.1724 145.017 17.2505V22.7835C142.862 22.7835 141.122 21.0431 141.122 18.8871V0.261928C143.278 0.261928 145.017 2.00235 145.017 4.13242V11.0422C146.108 9.69139 147.744 9.58748 148.497 9.58748H154.105Z" fill="white" fill-opacity="0.89"/>
<path d="M65 0C61.1428 0 56 8.47488 56 12.1065C56 13.0032 58.2296 13.2346 61.1627 13.2961C61.612 13.3055 61.9973 12.9786 62.0659 12.5345L62.6541 8.72185C62.6552 8.71465 62.6614 8.70933 62.6687 8.70933V8.70933L63.808 6.86933L64.7718 5.39145C64.9245 5.15742 65.2515 5.15742 65.4042 5.39145L66.368 6.86933L67.5007 8.69857C67.5048 8.70526 67.5121 8.70933 67.52 8.70933V8.70933L68.0971 12.4513C68.1731 12.9437 68.6002 13.3062 69.0983 13.294C71.9192 13.2251 74 12.9772 74 12.1065C74 8.47488 68.8572 0 65 0Z" fill="url(#paint0_linear_55_37)"/>
<defs>
<linearGradient id="paint0_linear_55_37" x1="64.9983" y1="0.000477964" x2="64.9983" y2="23.0005" gradientUnits="userSpaceOnUse">
<stop stop-color="#166F00"/>
<stop offset="0.559943" stop-color="#A1BB00"/>
</linearGradient>
</defs>
</svg>
